# xmcd
#
# Track frame offsets: 
#        150
#        21176
#        36417
#        54980
#        74958
#        91993
#        114837
#        130308
#        147512
#        167182
#        187202
#        207182
#        227246
#        252217
#        272725
#
# Disc length: 3832 seconds
#
# Revision: 2
# Processed by: cddbd v1.5.2PL0 Copyright (c) Steve Scherf et al.
# Submitted via: ExactAudioCopyFreeDBPlugin 1.0
#
DISCID=e70ef60f
DTITLE=CDS制作 - TEST-CD-21B【粤唱粤浓】
DYEAR=2013
DGENRE=stereo
TTITLE0=公子多情
TTITLE1=一水隔天涯
TTITLE2=情义两心坚
TTITLE3=雨丝情愁
TTITLE4=只有情永在
TTITLE5=平凡最浪漫
TTITLE6=随想曲
TTITLE7=顺流逆流
TTITLE8=甜言蜜语
TTITLE9=酒红色的心
TTITLE10=只求相爱过一生
TTITLE11=其实我真的爱你
TTITLE12=月光光
TTITLE13=逝去的诺言
TTITLE14=我有一段情
EXTD=
EXTT0=
EXTT1=
EXTT2=
EXTT3=
EXTT4=
EXTT5=
EXTT6=
EXTT7=
EXTT8=
EXTT9=
EXTT10=
EXTT11=
EXTT12=
EXTT13=
EXTT14=
PLAYORDER=
